<mxfile host="Electron" agent="Mozilla/5.0 (Windows NT 10.0; Win64; x64) AppleWebKit/537.36 (KHTML, like Gecko) draw.io/26.1.1 Chrome/132.0.6834.210 Electron/34.3.3 Safari/537.36" version="26.1.1">
  <diagram name="Page-1" id="3y4DenCc98c-6jCTJkQI">
    <mxGraphModel dx="2074" dy="1204" grid="1" gridSize="10" guides="1" tooltips="1" connect="1" arrows="1" fold="1" page="1" pageScale="1" pageWidth="850" pageHeight="1100" math="0" shadow="0">
      <root>
        <mxCell id="0" />
        <mxCell id="1" parent="0" />
        <mxCell id="-iDXs2jjtynevSr2jPX6-1" value="Developer" style="shape=umlActor;verticalLabelPosition=bottom;verticalAlign=top;html=1;outlineConnect=0;" parent="1" vertex="1">
          <mxGeometry x="120" y="370" width="30" height="60" as="geometry" />
        </mxCell>
        <mxCell id="-iDXs2jjtynevSr2jPX6-2" value="Administrator" style="shape=umlActor;verticalLabelPosition=bottom;verticalAlign=top;html=1;outlineConnect=0;" parent="1" vertex="1">
          <mxGeometry x="130" y="540" width="30" height="60" as="geometry" />
        </mxCell>
        <mxCell id="-iDXs2jjtynevSr2jPX6-13" value="Code Analysis System" style="swimlane;whiteSpace=wrap;html=1;" parent="1" vertex="1">
          <mxGeometry x="295" y="80" width="525" height="920" as="geometry" />
        </mxCell>
        <mxCell id="-iDXs2jjtynevSr2jPX6-7" value="Comprehensive Report" style="ellipse;whiteSpace=wrap;html=1;" parent="-iDXs2jjtynevSr2jPX6-13" vertex="1">
          <mxGeometry x="30" y="490" width="145" height="80" as="geometry" />
        </mxCell>
        <mxCell id="-iDXs2jjtynevSr2jPX6-56" style="edgeStyle=orthogonalEdgeStyle;rounded=0;orthogonalLoop=1;jettySize=auto;html=1;" parent="-iDXs2jjtynevSr2jPX6-13" source="-iDXs2jjtynevSr2jPX6-23" edge="1">
          <mxGeometry relative="1" as="geometry">
            <mxPoint x="262.5" y="700" as="targetPoint" />
          </mxGeometry>
        </mxCell>
        <mxCell id="-iDXs2jjtynevSr2jPX6-23" value="LLM" style="ellipse;whiteSpace=wrap;html=1;" parent="-iDXs2jjtynevSr2jPX6-13" vertex="1">
          <mxGeometry x="190" y="580" width="145" height="80" as="geometry" />
        </mxCell>
        <mxCell id="-iDXs2jjtynevSr2jPX6-27" value="Applies" style="text;html=1;align=center;verticalAlign=middle;resizable=0;points=[];autosize=1;strokeColor=none;fillColor=none;" parent="-iDXs2jjtynevSr2jPX6-13" vertex="1">
          <mxGeometry x="355" y="420" width="60" height="30" as="geometry" />
        </mxCell>
        <mxCell id="-iDXs2jjtynevSr2jPX6-32" style="edgeStyle=orthogonalEdgeStyle;rounded=0;orthogonalLoop=1;jettySize=auto;html=1;" parent="-iDXs2jjtynevSr2jPX6-13" source="-iDXs2jjtynevSr2jPX6-4" edge="1">
          <mxGeometry relative="1" as="geometry">
            <mxPoint x="260" y="570" as="targetPoint" />
          </mxGeometry>
        </mxCell>
        <mxCell id="-iDXs2jjtynevSr2jPX6-4" value="Data Collection" style="ellipse;whiteSpace=wrap;html=1;" parent="-iDXs2jjtynevSr2jPX6-13" vertex="1">
          <mxGeometry x="185" y="350" width="150" height="80" as="geometry" />
        </mxCell>
        <mxCell id="-iDXs2jjtynevSr2jPX6-26" value="" style="endArrow=classic;html=1;rounded=0;exitX=1;exitY=1;exitDx=0;exitDy=0;entryX=0.5;entryY=0;entryDx=0;entryDy=0;" parent="-iDXs2jjtynevSr2jPX6-13" source="-iDXs2jjtynevSr2jPX6-4" target="-iDXs2jjtynevSr2jPX6-28" edge="1">
          <mxGeometry width="50" height="50" relative="1" as="geometry">
            <mxPoint x="261" y="430" as="sourcePoint" />
            <mxPoint x="264" y="490" as="targetPoint" />
          </mxGeometry>
        </mxCell>
        <mxCell id="-iDXs2jjtynevSr2jPX6-28" value="Automatic Fixes Using Static Analysis Tools" style="ellipse;whiteSpace=wrap;html=1;" parent="-iDXs2jjtynevSr2jPX6-13" vertex="1">
          <mxGeometry x="355" y="490" width="145" height="80" as="geometry" />
        </mxCell>
        <mxCell id="-iDXs2jjtynevSr2jPX6-29" value="" style="endArrow=classic;html=1;rounded=0;exitX=0;exitY=1;exitDx=0;exitDy=0;entryX=0.5;entryY=0;entryDx=0;entryDy=0;" parent="-iDXs2jjtynevSr2jPX6-13" source="-iDXs2jjtynevSr2jPX6-4" target="-iDXs2jjtynevSr2jPX6-7" edge="1">
          <mxGeometry width="50" height="50" relative="1" as="geometry">
            <mxPoint x="75" y="590" as="sourcePoint" />
            <mxPoint x="125" y="540" as="targetPoint" />
          </mxGeometry>
        </mxCell>
        <mxCell id="-iDXs2jjtynevSr2jPX6-31" value="Generates" style="text;html=1;align=center;verticalAlign=middle;resizable=0;points=[];autosize=1;strokeColor=none;fillColor=none;" parent="-iDXs2jjtynevSr2jPX6-13" vertex="1">
          <mxGeometry x="95" y="420" width="80" height="30" as="geometry" />
        </mxCell>
        <mxCell id="-iDXs2jjtynevSr2jPX6-79" style="edgeStyle=orthogonalEdgeStyle;rounded=0;orthogonalLoop=1;jettySize=auto;html=1;exitX=0.5;exitY=1;exitDx=0;exitDy=0;" parent="-iDXs2jjtynevSr2jPX6-13" source="-iDXs2jjtynevSr2jPX6-34" edge="1">
          <mxGeometry relative="1" as="geometry">
            <mxPoint x="265.3333333333335" y="810" as="targetPoint" />
          </mxGeometry>
        </mxCell>
        <mxCell id="-iDXs2jjtynevSr2jPX6-34" value="Chat Assistant" style="ellipse;whiteSpace=wrap;html=1;" parent="-iDXs2jjtynevSr2jPX6-13" vertex="1">
          <mxGeometry x="192.5" y="710" width="145" height="80" as="geometry" />
        </mxCell>
        <mxCell id="-iDXs2jjtynevSr2jPX6-36" value="Creates" style="text;html=1;align=center;verticalAlign=middle;resizable=0;points=[];autosize=1;strokeColor=none;fillColor=none;" parent="-iDXs2jjtynevSr2jPX6-13" vertex="1">
          <mxGeometry x="185" y="670" width="70" height="30" as="geometry" />
        </mxCell>
        <mxCell id="-iDXs2jjtynevSr2jPX6-48" style="edgeStyle=orthogonalEdgeStyle;rounded=0;orthogonalLoop=1;jettySize=auto;html=1;" parent="-iDXs2jjtynevSr2jPX6-13" source="-iDXs2jjtynevSr2jPX6-44" edge="1">
          <mxGeometry relative="1" as="geometry">
            <mxPoint x="265" y="200" as="targetPoint" />
          </mxGeometry>
        </mxCell>
        <mxCell id="-iDXs2jjtynevSr2jPX6-44" value="Preliminary Data Collection (programming languages, size of repo, etc.)" style="ellipse;whiteSpace=wrap;html=1;" parent="-iDXs2jjtynevSr2jPX6-13" vertex="1">
          <mxGeometry x="172.5" y="40" width="185" height="100" as="geometry" />
        </mxCell>
        <mxCell id="-iDXs2jjtynevSr2jPX6-50" style="edgeStyle=orthogonalEdgeStyle;rounded=0;orthogonalLoop=1;jettySize=auto;html=1;" parent="-iDXs2jjtynevSr2jPX6-13" source="-iDXs2jjtynevSr2jPX6-47" edge="1">
          <mxGeometry relative="1" as="geometry">
            <mxPoint x="265" y="340" as="targetPoint" />
          </mxGeometry>
        </mxCell>
        <mxCell id="-iDXs2jjtynevSr2jPX6-47" value="static analysis tools" style="ellipse;whiteSpace=wrap;html=1;" parent="-iDXs2jjtynevSr2jPX6-13" vertex="1">
          <mxGeometry x="192.5" y="210" width="145" height="80" as="geometry" />
        </mxCell>
        <mxCell id="-iDXs2jjtynevSr2jPX6-51" value="Sends results" style="text;html=1;align=center;verticalAlign=middle;resizable=0;points=[];autosize=1;strokeColor=none;fillColor=none;" parent="-iDXs2jjtynevSr2jPX6-13" vertex="1">
          <mxGeometry x="257.5" y="298" width="100" height="30" as="geometry" />
        </mxCell>
        <mxCell id="-iDXs2jjtynevSr2jPX6-55" value="Trains" style="text;html=1;align=center;verticalAlign=middle;resizable=0;points=[];autosize=1;strokeColor=none;fillColor=none;" parent="-iDXs2jjtynevSr2jPX6-13" vertex="1">
          <mxGeometry x="257.5" y="490" width="60" height="30" as="geometry" />
        </mxCell>
        <mxCell id="-iDXs2jjtynevSr2jPX6-59" value="Automatic Fixes" style="ellipse;whiteSpace=wrap;html=1;" parent="-iDXs2jjtynevSr2jPX6-13" vertex="1">
          <mxGeometry x="365" y="710" width="145" height="80" as="geometry" />
        </mxCell>
        <mxCell id="-iDXs2jjtynevSr2jPX6-60" value="" style="endArrow=classic;html=1;rounded=0;exitX=1;exitY=1;exitDx=0;exitDy=0;entryX=0;entryY=0;entryDx=0;entryDy=0;" parent="-iDXs2jjtynevSr2jPX6-13" source="-iDXs2jjtynevSr2jPX6-23" target="-iDXs2jjtynevSr2jPX6-59" edge="1">
          <mxGeometry width="50" height="50" relative="1" as="geometry">
            <mxPoint x="75" y="480" as="sourcePoint" />
            <mxPoint x="125" y="430" as="targetPoint" />
          </mxGeometry>
        </mxCell>
        <mxCell id="-iDXs2jjtynevSr2jPX6-70" value="Applies" style="text;html=1;align=center;verticalAlign=middle;resizable=0;points=[];autosize=1;strokeColor=none;fillColor=none;" parent="-iDXs2jjtynevSr2jPX6-13" vertex="1">
          <mxGeometry x="345" y="650" width="60" height="30" as="geometry" />
        </mxCell>
        <mxCell id="-iDXs2jjtynevSr2jPX6-71" value="Optional Parameter Tuning" style="ellipse;whiteSpace=wrap;html=1;" parent="-iDXs2jjtynevSr2jPX6-13" vertex="1">
          <mxGeometry x="50" y="140" width="125" height="70" as="geometry" />
        </mxCell>
        <mxCell id="-iDXs2jjtynevSr2jPX6-72" value="" style="endArrow=classic;html=1;rounded=0;exitX=0;exitY=1;exitDx=0;exitDy=0;entryX=1;entryY=0;entryDx=0;entryDy=0;" parent="-iDXs2jjtynevSr2jPX6-13" source="-iDXs2jjtynevSr2jPX6-44" target="-iDXs2jjtynevSr2jPX6-71" edge="1">
          <mxGeometry width="50" height="50" relative="1" as="geometry">
            <mxPoint x="75" y="480" as="sourcePoint" />
            <mxPoint x="125" y="430" as="targetPoint" />
          </mxGeometry>
        </mxCell>
        <mxCell id="-iDXs2jjtynevSr2jPX6-73" value="" style="endArrow=classic;html=1;rounded=0;exitX=1;exitY=1;exitDx=0;exitDy=0;entryX=0;entryY=0;entryDx=0;entryDy=0;" parent="-iDXs2jjtynevSr2jPX6-13" source="-iDXs2jjtynevSr2jPX6-71" target="-iDXs2jjtynevSr2jPX6-47" edge="1">
          <mxGeometry width="50" height="50" relative="1" as="geometry">
            <mxPoint x="75" y="480" as="sourcePoint" />
            <mxPoint x="125" y="430" as="targetPoint" />
          </mxGeometry>
        </mxCell>
        <mxCell id="-iDXs2jjtynevSr2jPX6-76" value="Dashboard" style="ellipse;whiteSpace=wrap;html=1;" parent="-iDXs2jjtynevSr2jPX6-13" vertex="1">
          <mxGeometry x="192.5" y="820" width="145" height="80" as="geometry" />
        </mxCell>
        <mxCell id="-iDXs2jjtynevSr2jPX6-78" value="" style="endArrow=classic;html=1;rounded=0;exitX=0.5;exitY=1;exitDx=0;exitDy=0;entryX=0.186;entryY=0.108;entryDx=0;entryDy=0;entryPerimeter=0;" parent="-iDXs2jjtynevSr2jPX6-13" source="-iDXs2jjtynevSr2jPX6-7" target="-iDXs2jjtynevSr2jPX6-76" edge="1">
          <mxGeometry width="50" height="50" relative="1" as="geometry">
            <mxPoint x="75" y="480" as="sourcePoint" />
            <mxPoint x="125" y="430" as="targetPoint" />
            <Array as="points">
              <mxPoint x="125" y="680" />
              <mxPoint x="145" y="780" />
            </Array>
          </mxGeometry>
        </mxCell>
        <mxCell id="-iDXs2jjtynevSr2jPX6-84" value="Included in" style="text;html=1;align=center;verticalAlign=middle;resizable=0;points=[];autosize=1;strokeColor=none;fillColor=none;" parent="-iDXs2jjtynevSr2jPX6-13" vertex="1">
          <mxGeometry x="35" y="605" width="80" height="30" as="geometry" />
        </mxCell>
        <mxCell id="-iDXs2jjtynevSr2jPX6-85" value="Included in" style="text;html=1;align=center;verticalAlign=middle;resizable=0;points=[];autosize=1;strokeColor=none;fillColor=none;" parent="-iDXs2jjtynevSr2jPX6-13" vertex="1">
          <mxGeometry x="277.5" y="790" width="80" height="30" as="geometry" />
        </mxCell>
        <mxCell id="-iDXs2jjtynevSr2jPX6-42" value="" style="endArrow=classic;html=1;rounded=0;entryX=0;entryY=0.5;entryDx=0;entryDy=0;" parent="1" target="-iDXs2jjtynevSr2jPX6-4" edge="1">
          <mxGeometry width="50" height="50" relative="1" as="geometry">
            <mxPoint x="170" y="390" as="sourcePoint" />
            <mxPoint x="420" y="340" as="targetPoint" />
          </mxGeometry>
        </mxCell>
        <mxCell id="-iDXs2jjtynevSr2jPX6-49" value="Provides context" style="text;html=1;align=center;verticalAlign=middle;resizable=0;points=[];autosize=1;strokeColor=none;fillColor=none;" parent="1" vertex="1">
          <mxGeometry x="555" y="238" width="110" height="30" as="geometry" />
        </mxCell>
        <mxCell id="-iDXs2jjtynevSr2jPX6-54" value="" style="endArrow=classic;html=1;rounded=0;entryX=0;entryY=0;entryDx=0;entryDy=0;" parent="1" target="-iDXs2jjtynevSr2jPX6-7" edge="1">
          <mxGeometry width="50" height="50" relative="1" as="geometry">
            <mxPoint x="170" y="420" as="sourcePoint" />
            <mxPoint x="420" y="510" as="targetPoint" />
          </mxGeometry>
        </mxCell>
        <mxCell id="-iDXs2jjtynevSr2jPX6-61" value="CI/CD Pipelne" style="shape=umlActor;verticalLabelPosition=bottom;verticalAlign=top;html=1;outlineConnect=0;" parent="1" vertex="1">
          <mxGeometry x="960" y="410" width="30" height="60" as="geometry" />
        </mxCell>
        <mxCell id="-iDXs2jjtynevSr2jPX6-62" value="" style="endArrow=classic;html=1;rounded=0;entryX=1;entryY=1;entryDx=0;entryDy=0;" parent="1" target="-iDXs2jjtynevSr2jPX6-44" edge="1">
          <mxGeometry width="50" height="50" relative="1" as="geometry">
            <mxPoint x="950" y="410" as="sourcePoint" />
            <mxPoint x="420" y="510" as="targetPoint" />
          </mxGeometry>
        </mxCell>
        <mxCell id="-iDXs2jjtynevSr2jPX6-63" value="" style="endArrow=classic;html=1;rounded=0;entryX=1;entryY=0.5;entryDx=0;entryDy=0;" parent="1" target="-iDXs2jjtynevSr2jPX6-47" edge="1">
          <mxGeometry width="50" height="50" relative="1" as="geometry">
            <mxPoint x="950" y="440" as="sourcePoint" />
            <mxPoint x="420" y="510" as="targetPoint" />
          </mxGeometry>
        </mxCell>
        <mxCell id="-iDXs2jjtynevSr2jPX6-64" value="" style="endArrow=classic;html=1;rounded=0;entryX=1;entryY=0;entryDx=0;entryDy=0;" parent="1" target="-iDXs2jjtynevSr2jPX6-28" edge="1">
          <mxGeometry width="50" height="50" relative="1" as="geometry">
            <mxPoint x="950" y="460" as="sourcePoint" />
            <mxPoint x="420" y="510" as="targetPoint" />
          </mxGeometry>
        </mxCell>
        <mxCell id="-iDXs2jjtynevSr2jPX6-66" value="" style="endArrow=classic;html=1;rounded=0;entryX=1;entryY=0;entryDx=0;entryDy=0;" parent="1" target="-iDXs2jjtynevSr2jPX6-59" edge="1">
          <mxGeometry width="50" height="50" relative="1" as="geometry">
            <mxPoint x="950" y="510" as="sourcePoint" />
            <mxPoint x="420" y="510" as="targetPoint" />
          </mxGeometry>
        </mxCell>
        <mxCell id="-iDXs2jjtynevSr2jPX6-67" value="Project Manager" style="shape=umlActor;verticalLabelPosition=bottom;verticalAlign=top;html=1;outlineConnect=0;" parent="1" vertex="1">
          <mxGeometry x="130" y="750" width="30" height="60" as="geometry" />
        </mxCell>
        <mxCell id="-iDXs2jjtynevSr2jPX6-74" value="" style="endArrow=classic;html=1;rounded=0;entryX=-0.004;entryY=0.421;entryDx=0;entryDy=0;entryPerimeter=0;" parent="1" target="-iDXs2jjtynevSr2jPX6-71" edge="1">
          <mxGeometry width="50" height="50" relative="1" as="geometry">
            <mxPoint x="160" y="370" as="sourcePoint" />
            <mxPoint x="420" y="510" as="targetPoint" />
          </mxGeometry>
        </mxCell>
        <mxCell id="-iDXs2jjtynevSr2jPX6-81" value="" style="endArrow=classic;html=1;rounded=0;entryX=0.313;entryY=0.983;entryDx=0;entryDy=0;entryPerimeter=0;" parent="1" target="-iDXs2jjtynevSr2jPX6-76" edge="1">
          <mxGeometry width="50" height="50" relative="1" as="geometry">
            <mxPoint x="150" y="840" as="sourcePoint" />
            <mxPoint x="510" y="990" as="targetPoint" />
            <Array as="points">
              <mxPoint x="160" y="980" />
            </Array>
          </mxGeometry>
        </mxCell>
        <mxCell id="-iDXs2jjtynevSr2jPX6-82" value="" style="endArrow=classic;html=1;rounded=0;entryX=0;entryY=1;entryDx=0;entryDy=0;" parent="1" target="-iDXs2jjtynevSr2jPX6-76" edge="1">
          <mxGeometry width="50" height="50" relative="1" as="geometry">
            <mxPoint x="150" y="630" as="sourcePoint" />
            <mxPoint x="420" y="680" as="targetPoint" />
            <Array as="points">
              <mxPoint x="250" y="910" />
            </Array>
          </mxGeometry>
        </mxCell>
        <mxCell id="-iDXs2jjtynevSr2jPX6-83" value="" style="endArrow=classic;html=1;rounded=0;entryX=0;entryY=0.5;entryDx=0;entryDy=0;" parent="1" target="-iDXs2jjtynevSr2jPX6-76" edge="1">
          <mxGeometry width="50" height="50" relative="1" as="geometry">
            <mxPoint x="150" y="460" as="sourcePoint" />
            <mxPoint x="420" y="590" as="targetPoint" />
            <Array as="points">
              <mxPoint x="300" y="730" />
              <mxPoint x="380" y="870" />
            </Array>
          </mxGeometry>
        </mxCell>
        <mxCell id="-iDXs2jjtynevSr2jPX6-86" value="" style="endArrow=classic;html=1;rounded=0;entryX=0;entryY=1;entryDx=0;entryDy=0;" parent="1" target="-iDXs2jjtynevSr2jPX6-71" edge="1">
          <mxGeometry width="50" height="50" relative="1" as="geometry">
            <mxPoint x="170" y="570" as="sourcePoint" />
            <mxPoint x="320" y="610" as="targetPoint" />
          </mxGeometry>
        </mxCell>
      </root>
    </mxGraphModel>
  </diagram>
</mxfile>
